# xmcd CD database file
#
# Track frame offsets:
#	150
#	17207
#	30329
#	48114
#	70449
#	86682
#	114564
#	132643
#	151943
#	165630
#	191069
#	213399
#	236576
#	261280
#	283832
#	308424
#
# Disc length: 4282 seconds
#
# Revision: 2
# Processed by: cddbd v1.4b41PL1 Copyright (c) Steve Scherf et al.
# Submitted via: Feurio! 1.60 - http://www.feurio.com
#
DISCID=db10b810,df10b810
DTITLE=Johny Thomson Singers - Gospel Songs CD 2
DYEAR=1900
DGENRE=
TTITLE0=Nobody knows
TTITLE1=I'll never say no
TTITLE2=Don't take god's love for granted
TTITLE3=Looking for Jesus to return
TTITLE4=Ride in King Jesus
TTITLE5=It was a glorious day
TTITLE6=If you abide in my word
TTITLE7=God put the rainbow in the sky
TTITLE8=Jesus is keeping me alive
TTITLE9=The Lord is
TTITLE10=Jericho road
TTITLE11=Will you be there
TTITLE12=I'll be with thee
TTITLE13=Who shall abide
TTITLE14=You make look mfor me
TTITLE15=On my way to Zion
EXTD=
EXTT0=
EXTT1=
EXTT2=
EXTT3=
EXTT4=
EXTT5=
EXTT6=
EXTT7=
EXTT8=
EXTT9=
EXTT10=
EXTT11=
EXTT12=
EXTT13=
EXTT14=
EXTT15=
PLAYORDER=
